<?xml version="1.0" standalone="no"?>
<!DOCTYPE svg PUBLIC "-//W3C//DTD SVG 20010904//EN"
 "http://www.w3.org/TR/2001/REC-SVG-20010904/DTD/svg10.dtd">
<svg version="1.0" xmlns="http://www.w3.org/2000/svg"
 width="337.000000pt" height="224.000000pt" viewBox="0 0 337.000000 224.000000"
 preserveAspectRatio="xMidYMid meet">

<g transform="translate(-1900,224) scale(0.1,-0.1)"
fill="#000000" stroke="none">
<path d="M1840 2143 c-58 -10 -169 -74 -204 -116 -81 -98 -127 -266 -129 -467
-2 -143 10 -185 53 -185 23 0 28 8 52 85 63 192 88 228 211 301 222 130 278
206 233 314 -27 64 -103 88 -216 68z"/>
<path d="M1205 1955 c-49 -48 -22 -95 84 -150 55 -27 78 -52 117 -122 16 -29
34 -51 39 -49 19 6 9 147 -15 199 -56 123 -165 183 -225 122z"/>
<path d="M1850 1641 c-71 -22 -170 -109 -170 -151 0 -27 14 -25 71 10 44 27
57 30 156 32 107 3 108 3 111 28 4 33 -34 69 -85 81 -44 10 -49 10 -83 0z"/>
<path d="M196 1621 c-3 -5 -12 -37 -21 -72 -12 -53 -15 -160 -15 -616 0 -540
0 -553 20 -573 15 -15 33 -20 73 -20 75 0 89 13 96 94 l6 66 50 -43 c74 -65
84 -68 177 -62 112 8 157 26 211 84 113 121 154 297 109 462 -24 84 -59 144
-115 196 -115 106 -178 108 -322 13 -52 -35 -97 -61 -99 -59 -9 11 -28 114
-56 294 -25 165 -34 203 -52 222 -22 23 -52 30 -62 14z m405 -604 c20 -13 46
-47 64 -82 27 -53 30 -68 30 -149 0 -82 -3 -96 -30 -145 -72 -130 -206 -114
-283 33 -22 42 -26 65 -26 131 -1 98 21 162 70 205 29 25 43 30 88 30 39 0 62
-6 87 -23z"/>
<path d="M1052 1453 c-22 -4 -23 -8 -18 -41 14 -81 18 -304 7 -417 -19 -200
-26 -572 -11 -590 18 -22 192 -22 210 0 10 12 12 61 6 223 -4 114 -8 341 -9
505 -2 346 3 328 -101 326 -34 -1 -72 -4 -84 -6z"/>
<path d="M1513 1292 c-7 -4 -15 -62 -21 -152 -9 -130 -13 -153 -43 -220 l-32
-75 -2 -185 c0 -102 -4 -197 -9 -211 -14 -48 11 -59 129 -59 89 0 106 3 113
18 5 9 12 69 15 132 4 63 10 156 13 207 7 88 5 97 -25 177 -41 110 -53 181
-45 289 l7 87 -44 0 c-24 0 -49 -4 -56 -8z"/>
<path d="M1955 1199 c-123 -36 -165 -86 -165 -197 0 -105 64 -199 153 -223
148 -40 341 -106 350 -120 14 -23 1 -66 -26 -84 -13 -8 -50 -20 -82 -26 -86
-16 -122 -2 -187 71 -29 33 -60 63 -70 65 -30 10 -158 -59 -158 -85 0 -17 166
-151 220 -177 49 -24 67 -28 155 -28 89 0 106 4 156 28 175 85 232 274 118
388 -30 30 -56 44 -126 64 -158 47 -270 85 -288 99 -13 9 -16 20 -11 40 9 35
73 65 146 68 56 3 67 -5 126 -87 l21 -30 84 29 c102 35 114 43 97 63 -7 8 -57
47 -113 87 l-100 71 -115 2 c-91 2 -130 -2 -185 -18z"/>
<path d="M2745 1202 c-126 -38 -166 -78 -173 -173 -8 -114 58 -225 150 -250
24 -6 114 -33 201 -60 149 -47 157 -51 157 -75 0 -57 -38 -86 -135 -99 -70 -9
-100 5 -171 81 -55 58 -64 64 -90 58 -37 -8 -136 -72 -132 -85 7 -20 156 -140
213 -171 56 -31 66 -33 160 -33 93 0 105 2 167 33 138 68 203 212 148 327 -34
69 -71 91 -249 146 -225 69 -232 73 -209 124 12 27 65 50 137 60 42 5 45 4 87
-41 24 -26 44 -50 44 -54 0 -20 39 -18 108 7 95 33 107 40 90 60 -7 8 -57 47
-112 87 l-100 71 -116 2 c-86 2 -130 -2 -175 -15z"/>
<path d="M1843 245 c-33 -23 -32 -88 2 -111 28 -18 59 -15 63 7 2 11 -4 15
-19 15 -12 -1 -26 7 -33 17 -15 23 4 52 33 51 15 0 21 4 19 15 -4 22 -38 25
-65 6z"/>
<path d="M1995 235 c-14 -13 -25 -33 -25 -45 0 -27 43 -70 70 -70 27 0 70 43
70 70 0 27 -43 70 -70 70 -11 0 -32 -11 -45 -25z m70 -45 c0 -28 -4 -36 -22
-38 -14 -2 -26 4 -33 17 -15 29 4 63 33 59 18 -2 22 -10 22 -38z"/>
<path d="M2393 245 c-33 -23 -32 -88 2 -111 28 -18 59 -15 63 7 2 11 -4 15
-19 15 -12 -1 -26 7 -33 17 -15 23 4 52 33 51 15 0 21 4 19 15 -4 22 -38 25
-65 6z"/>
<path d="M2955 235 c-14 -13 -25 -33 -25 -45 0 -26 43 -70 68 -70 25 0 58 29
67 58 6 20 3 22 -29 22 -25 0 -36 -4 -36 -15 0 -8 7 -15 16 -15 8 0 12 -4 9
-10 -9 -15 -41 -12 -55 5 -10 12 -10 21 -1 41 10 23 16 25 46 20 38 -8 48 7
16 24 -30 16 -50 12 -76 -15z"/>
<path d="M1059 188 c20 -72 40 -81 57 -28 l12 35 15 -37 c9 -21 21 -38 26 -38
6 0 18 26 27 58 9 31 18 60 21 65 2 4 -5 7 -15 7 -15 0 -22 -10 -27 -37 l-8
-38 -12 35 c-17 49 -41 51 -51 3 l-8 -38 -10 38 c-6 25 -15 37 -27 37 -17 0
-17 -3 0 -62z"/>
<path d="M1280 184 c0 -48 3 -65 13 -62 7 3 13 28 15 66 2 51 0 62 -13 62 -12
0 -15 -13 -15 -66z"/>
<path d="M1380 185 c0 -51 3 -65 15 -65 11 0 15 12 15 46 l0 47 36 -47 c20
-26 41 -45 47 -43 7 2 13 30 15 65 2 51 0 62 -13 62 -11 0 -15 -10 -15 -35 0
-44 -9 -44 -39 0 -13 19 -32 35 -42 35 -17 0 -19 -8 -19 -65z"/>
<path d="M1580 185 l0 -65 35 0 c24 0 35 5 35 15 0 8 -9 15 -20 15 -11 0 -20
7 -20 15 0 8 9 15 20 15 11 0 20 5 20 10 0 6 -9 10 -20 10 -11 0 -20 7 -20 15
0 8 9 15 20 15 11 0 20 5 20 10 0 6 -16 10 -35 10 l-35 0 0 -65z"/>
<path d="M2172 188 c2 -48 7 -63 18 -63 10 0 16 12 18 38 l3 38 30 -41 c17
-23 35 -40 42 -37 7 2 13 29 15 65 2 51 0 62 -13 62 -11 0 -15 -10 -15 -37
l-1 -38 -32 38 c-18 20 -40 37 -50 37 -16 0 -18 -8 -15 -62z"/>
<path d="M2530 185 c0 -51 3 -65 15 -65 12 0 15 14 15 65 0 51 -3 65 -15 65
-12 0 -15 -14 -15 -65z"/>
<path d="M2632 188 l3 -63 34 0 c38 0 55 22 21 27 -27 4 -27 22 0 26 27 4 26
20 -2 24 -28 4 -27 22 2 26 36 6 21 22 -20 22 l-41 0 3 -62z"/>
<path d="M2780 185 c0 -48 3 -66 12 -63 7 3 15 15 18 28 l5 23 12 -27 c7 -14
19 -26 28 -26 18 0 19 5 4 31 -7 15 -7 24 1 34 6 8 10 24 8 37 -2 19 -10 23
-45 26 l-43 3 0 -66z m55 25 c0 -7 -6 -15 -12 -17 -8 -3 -13 4 -13 17 0 13 5
20 13 18 6 -3 12 -11 12 -18z"/>
<path d="M3132 188 l3 -63 34 0 c19 0 36 6 39 13 2 7 -6 12 -23 12 -32 0 -29
23 3 28 30 5 28 22 -3 22 -16 0 -25 6 -25 15 0 9 9 15 25 15 14 0 25 5 25 10
0 6 -18 10 -40 10 l-41 0 3 -62z"/>
</g>
</svg>
