<?xml version="1.0" ?><svg viewBox="0 0 512 512" xmlns="http://www.w3.org/2000/svg"><g id="Serving_wine"><path d="M418.9666,439.75H371.9353V355.4126a76.2455,76.2455,0,0,0,63.053-74.9653c0-40.8106-18.2947-92.3282-19.0723-94.4986A13.1246,13.1246,0,0,0,403.56,177.25h-89.491a13.1247,13.1247,0,0,0-12.356,8.6987c-.675,1.8853-14.552,41-18.1921,77.9917a13.08,13.08,0,0,0-.376,2.9971c0,.2427.06.47.0728.7095-.3462,4.331-.5769,8.6279-.5769,12.8a76.2437,76.2437,0,0,0,63.0444,74.9643V439.75H298.6541a13.125,13.125,0,1,0,0,26.25H418.9666a13.125,13.125,0,0,0,0-26.25ZM308.8909,280.4473c0-.1241.0149-.26.0149-.3848h99.8176c0,.125.0149.2607.0149.3848a49.9237,49.9237,0,1,1-99.8474,0Z"/><path d="M199.5117,169.6523V111.625h-70v57.9922c-30.9028,13.999-52.5,45.9678-52.5,83.167h87.5V396h-87.5v57.0234A12.9768,12.9768,0,0,0,89.9885,466H239.0347a12.977,12.977,0,0,0,12.977-12.9766V252.7842C252.0117,215.5913,230.408,183.6543,199.5117,169.6523Z"/><path d="M199.5117,59.1592A13.1593,13.1593,0,0,0,186.3523,46H142.6709a13.1592,13.1592,0,0,0-13.1592,13.1592V85.375h70Z"/></g></svg>